<?xml version="1.0" encoding="iso-8859-1"?>
<!-- Generator: Adobe Illustrator 19.0.0, SVG Export Plug-In . SVG Version: 6.00 Build 0)  -->
<svg version="1.1" id="Layer_1" xmlns="http://www.w3.org/2000/svg" xmlns:xlink="http://www.w3.org/1999/xlink" x="0px" y="0px"
	 viewBox="0 0 510.67 510.67" style="enable-background:new 0 0 510.67 510.67;" xml:space="preserve">
<g>
	<path style="fill:#FFD46A;" d="M266.3,34.335c-127.393,0-231.034,103.642-231.034,231.035c0,22.902,3.366,45.029,9.601,65.931
		l43.752-43.752c4.746-4.745,12.438-4.745,17.184,0c4.744,4.745,4.744,12.438,0,17.183L54.914,355.62
		c-0.296,0.296-0.604,0.573-0.921,0.832c10.146,23.559,24.095,45.109,41.081,63.863l44.708-44.708
		c4.746-4.745,12.438-4.745,17.184,0c4.744,4.745,4.744,12.438,0,17.183l-44.654,44.655c18.859,16.895,40.492,30.753,64.136,40.772
		c0.166-0.187,0.325-0.379,0.504-0.558l46.355-46.354c4.744-4.744,12.437-4.745,17.183,0c4.744,4.745,4.744,12.438-0.001,17.183
		l-38.731,38.731c20.492,5.972,42.147,9.187,64.542,9.187c127.394,0,231.035-103.642,231.035-231.035S393.693,34.335,266.3,34.335z
		 M278.45,383.209v17.129c0,6.71-5.44,12.15-12.15,12.15s-12.15-5.439-12.15-12.15v-17.129
		c-37.24-5.853-65.817-38.157-65.817-77.015c0-6.71,5.44-12.15,12.15-12.15s12.15,5.439,12.15,12.15
		c0,29.592,24.075,53.667,53.667,53.667s53.667-24.075,53.667-53.667c0-29.593-24.075-53.668-53.667-53.668
		c-29.21,0-52.974-23.764-52.974-52.973c0-25.028,17.453-46.043,40.823-51.551v-17.466c0-6.71,5.44-12.15,12.15-12.15
		s12.15,5.439,12.15,12.15v17.466c23.371,5.508,40.824,26.523,40.824,51.551c0,6.71-5.44,12.15-12.15,12.15
		s-12.15-5.439-12.15-12.15c0-15.32-12.078-27.873-27.212-28.637c-0.48,0.058-0.966,0.096-1.462,0.096s-0.981-0.039-1.462-0.096
		c-15.134,0.764-27.211,13.316-27.211,28.637c0,15.811,12.862,28.673,28.673,28.673c42.991,0,77.968,34.976,77.968,77.968
		C344.268,345.052,315.69,377.356,278.45,383.209z"/>
	<g>
		<path d="M255.335,510.67c-68.202,0-132.322-26.56-180.549-74.786C26.56,387.658,0,323.538,0,255.335S26.56,123.012,74.786,74.786
			C123.013,26.56,187.133,0,255.335,0s132.322,26.56,180.549,74.786s74.786,112.346,74.786,180.549s-26.56,132.323-74.786,180.549
			C387.657,484.11,323.537,510.67,255.335,510.67z M190.782,477.194c20.492,5.971,42.159,9.176,64.553,9.176
			c127.393,0,231.034-103.642,231.034-231.035S382.728,24.3,255.335,24.3S24.301,127.942,24.301,255.335
			c0,22.907,3.349,45.04,9.586,65.946l43.767-43.767c4.746-4.745,12.438-4.745,17.184,0c4.744,4.745,4.744,12.438,0,17.183
			L43.95,345.585c-0.3,0.299-0.61,0.58-0.932,0.841c10.145,23.553,24.107,45.108,41.089,63.858l44.711-44.711
			c4.746-4.745,12.438-4.745,17.184,0c4.744,4.745,4.744,12.438,0,17.183l-44.665,44.665c18.858,16.896,40.489,30.736,64.133,40.756
			c0.166-0.188,0.339-0.373,0.519-0.552l46.355-46.354c4.744-4.744,12.437-4.745,17.183,0c4.744,4.745,4.744,12.438-0.001,17.183
			L190.782,477.194z M255.335,402.453c-6.71,0-12.15-5.439-12.15-12.15v-17.122c-37.24-5.853-65.817-38.164-65.817-77.022
			c0-6.71,5.44-12.15,12.15-12.15s12.15,5.439,12.15,12.15c0,29.592,24.075,53.667,53.667,53.667s53.667-24.075,53.667-53.667
			c0-29.593-24.075-53.668-53.667-53.668c-29.21,0-52.974-23.764-52.974-52.973c0-25.031,17.449-46.063,40.823-51.568V120.5
			c0-6.71,5.44-12.15,12.15-12.15s12.15,5.439,12.15,12.15v17.449c23.374,5.505,40.823,26.537,40.823,51.568
			c0,6.71-5.44,12.15-12.15,12.15s-12.15-5.439-12.15-12.15c0-15.302-12.048-27.843-27.156-28.634c-0.994,0.124-2.039,0.124-3.033,0
			c-15.108,0.791-27.156,13.332-27.156,28.634c0,15.811,12.862,28.673,28.673,28.673c42.991,0,77.968,34.976,77.968,77.968
			c0,38.858-28.577,71.169-65.817,77.022v17.122C267.485,397.013,262.045,402.453,255.335,402.453z"/>
	</g>
</g>
<g>
</g>
<g>
</g>
<g>
</g>
<g>
</g>
<g>
</g>
<g>
</g>
<g>
</g>
<g>
</g>
<g>
</g>
<g>
</g>
<g>
</g>
<g>
</g>
<g>
</g>
<g>
</g>
<g>
</g>
</svg>
